<mxfile host="65bd71144e">
    <diagram id="8iccBP2VLOe9JQfQa-V7" name="Page-1">
        <mxGraphModel dx="1889" dy="779" grid="1" gridSize="10" guides="1" tooltips="1" connect="1" arrows="1" fold="1" page="0" pageScale="1" pageWidth="850" pageHeight="1100" math="0" shadow="0">
            <root>
                <mxCell id="0"/>
                <mxCell id="1" parent="0"/>
                <mxCell id="9" value="" style="edgeStyle=none;html=1;" edge="1" parent="1" source="7" target="8">
                    <mxGeometry relative="1" as="geometry"/>
                </mxCell>
                <mxCell id="15" style="edgeStyle=none;html=1;exitX=1;exitY=0.5;exitDx=0;exitDy=0;entryX=0;entryY=0.75;entryDx=0;entryDy=0;" edge="1" parent="1" source="7" target="12">
                    <mxGeometry relative="1" as="geometry"/>
                </mxCell>
                <mxCell id="16" style="edgeStyle=none;html=1;exitX=1;exitY=0.5;exitDx=0;exitDy=0;entryX=0;entryY=0.75;entryDx=0;entryDy=0;" edge="1" parent="1" source="7" target="13">
                    <mxGeometry relative="1" as="geometry"/>
                </mxCell>
                <mxCell id="7" value="Admin" style="rhombus;whiteSpace=wrap;html=1;" vertex="1" parent="1">
                    <mxGeometry x="-240" y="40" width="80" height="80" as="geometry"/>
                </mxCell>
                <mxCell id="20" value="" style="edgeStyle=none;html=1;" edge="1" parent="1" source="8" target="19">
                    <mxGeometry relative="1" as="geometry"/>
                </mxCell>
                <mxCell id="8" value="Project Highlights&lt;br&gt;Admin Page" style="whiteSpace=wrap;html=1;" vertex="1" parent="1">
                    <mxGeometry x="-100" y="50" width="120" height="60" as="geometry"/>
                </mxCell>
                <mxCell id="28" value="" style="edgeStyle=none;html=1;fontColor=#000000;" edge="1" parent="1" source="12" target="27">
                    <mxGeometry relative="1" as="geometry"/>
                </mxCell>
                <mxCell id="12" value="Register New Accounts Page" style="whiteSpace=wrap;html=1;" vertex="1" parent="1">
                    <mxGeometry x="-100" y="280" width="120" height="60" as="geometry"/>
                </mxCell>
                <mxCell id="36" value="" style="edgeStyle=none;html=1;fontColor=#000000;" edge="1" parent="1" source="13" target="35">
                    <mxGeometry relative="1" as="geometry"/>
                </mxCell>
                <mxCell id="13" value="Client Project Data Admin Page" style="whiteSpace=wrap;html=1;" vertex="1" parent="1">
                    <mxGeometry x="-100" y="540" width="120" height="60" as="geometry"/>
                </mxCell>
                <mxCell id="26" value="" style="edgeStyle=none;html=1;fontColor=#000000;" edge="1" parent="1" source="19" target="25">
                    <mxGeometry relative="1" as="geometry"/>
                </mxCell>
                <mxCell id="19" value="&lt;ul&gt;&lt;li&gt;Add new projects to highlights&lt;br&gt;&lt;/li&gt;&lt;li&gt;Delete projects from highlights&lt;/li&gt;&lt;li&gt;Edit project details from highlights&lt;/li&gt;&lt;/ul&gt;" style="rounded=1;whiteSpace=wrap;html=1;verticalAlign=top;align=left;spacingLeft=0;spacingTop=0;spacingRight=0;spacing=10;arcSize=21;" vertex="1" parent="1">
                    <mxGeometry x="115" width="170" height="160" as="geometry"/>
                </mxCell>
                <mxCell id="25" value="DB Store:&lt;br&gt;&lt;ul&gt;&lt;li&gt;Title of Project&lt;/li&gt;&lt;li&gt;Brief Description&lt;/li&gt;&lt;li&gt;Images that show the project&amp;nbsp;&lt;/li&gt;&lt;li&gt;Testimonials of client&lt;/li&gt;&lt;/ul&gt;" style="whiteSpace=wrap;html=1;align=left;verticalAlign=top;rounded=1;spacingLeft=0;spacingTop=0;spacingRight=0;spacing=10;arcSize=21;" vertex="1" parent="1">
                    <mxGeometry x="660" width="165" height="162.5" as="geometry"/>
                </mxCell>
                <mxCell id="32" value="" style="edgeStyle=none;html=1;fontColor=#000000;" edge="1" parent="1" source="27" target="31">
                    <mxGeometry relative="1" as="geometry"/>
                </mxCell>
                <mxCell id="27" value="&lt;ul&gt;&lt;li&gt;Create new accounts for clients.&amp;nbsp;&lt;/li&gt;&lt;/ul&gt;" style="rounded=1;whiteSpace=wrap;html=1;verticalAlign=top;align=left;spacing=10;" vertex="1" parent="1">
                    <mxGeometry x="115" y="270" width="180" height="80" as="geometry"/>
                </mxCell>
                <mxCell id="34" value="" style="edgeStyle=none;html=1;fontColor=#000000;" edge="1" parent="1" source="31" target="33">
                    <mxGeometry relative="1" as="geometry"/>
                </mxCell>
                <mxCell id="31" value="Creating a new account sends an email to the client with login info (Username and Password)" style="rounded=1;whiteSpace=wrap;html=1;verticalAlign=top;align=left;spacing=10;" vertex="1" parent="1">
                    <mxGeometry x="382.5" y="270" width="180" height="80" as="geometry"/>
                </mxCell>
                <mxCell id="33" value="DB Store:&lt;br&gt;&lt;ul&gt;&lt;li&gt;User email&lt;/li&gt;&lt;li&gt;User password&lt;/li&gt;&lt;li&gt;User Project Name&lt;/li&gt;&lt;/ul&gt;" style="whiteSpace=wrap;html=1;align=left;verticalAlign=top;rounded=1;spacing=10;" vertex="1" parent="1">
                    <mxGeometry x="660" y="230" width="170" height="160" as="geometry"/>
                </mxCell>
                <mxCell id="38" value="" style="edgeStyle=none;html=1;fontColor=#000000;" edge="1" parent="1" source="35" target="37">
                    <mxGeometry relative="1" as="geometry"/>
                </mxCell>
                <mxCell id="35" value="&lt;ul&gt;&lt;li&gt;Add multiple zip files of client project data&lt;/li&gt;&lt;li&gt;Replace multiple&amp;nbsp;&amp;nbsp;zip files of client project data&lt;/li&gt;&lt;/ul&gt;" style="rounded=1;whiteSpace=wrap;html=1;spacing=10;align=left;verticalAlign=top;" vertex="1" parent="1">
                    <mxGeometry x="117.5" y="495" width="175" height="150" as="geometry"/>
                </mxCell>
                <mxCell id="37" value="DB Store:&amp;nbsp;&lt;br&gt;&lt;ul&gt;&lt;li&gt;File title&lt;/li&gt;&lt;li&gt;Files&lt;/li&gt;&lt;/ul&gt;" style="whiteSpace=wrap;html=1;align=left;verticalAlign=top;rounded=1;spacing=10;" vertex="1" parent="1">
                    <mxGeometry x="660" y="525" width="157.5" height="90" as="geometry"/>
                </mxCell>
            </root>
        </mxGraphModel>
    </diagram>
</mxfile>